<svg xmlns="http://www.w3.org/2000/svg" viewBox="0 0 32 32">
  <rect width="32" height="32" fill="#012169"/>
  <rect x="14" y="0" width="4" height="32" fill="white"/>
  <rect x="0" y="14" width="32" height="4" fill="white"/>
  <rect x="15" y="0" width="2" height="32" fill="#C8102E"/>
  <rect x="0" y="15" width="32" height="2" fill="#C8102E"/>
  <polygon points="6,0 14,8 14,0" fill="white"/>
  <polygon points="0,6 8,14 0,14" fill="white"/>
  <polygon points="18,0 32,14 32,0" fill="white"/>
  <polygon points="0,18 14,32 0,32" fill="white"/>
  <polygon points="18,32 32,18 32,32" fill="white"/>
  <polygon points="32,14 18,0 32,0" fill="white"/>
  <polygon points="14,32 0,18 0,32" fill="white"/>
  <polygon points="32,18 18,32 32,32" fill="white"/>
  <polygon points="0,14 8,14 0,6" fill="#C8102E"/>
  <polygon points="6,0 14,0 14,8" fill="#C8102E"/>
  <polygon points="18,0 32,0 32,14" fill="#C8102E"/>
  <polygon points="0,18 0,32 14,32" fill="#C8102E"/>
  <polygon points="18,32 32,32 32,18" fill="#C8102E"/>
</svg>
